<svg xmlns="http://www.w3.org/2000/svg" width="368" height="369" viewBox="0 0 368 369">
  <g fill="none">
    <polygon fill="#5D9FE2" points="36 101.3 49.8 50 .7 233.1 .7 233.1"/>
    <polygon fill="#CDDBFE" points="183 183.2 275.3 158.5 261.3 106.1 156 78.1 77.9 156.3 106.1 261.6 158.2 275.7"/>
    <polygon fill="#5D9FE2" points="49.9 50 49.8 50"/>
    <polygon fill="#5D9FE2" points="275.3 158.5 183 183.2 158.2 275.7 211.3 290 289.5 211.8"/>
    <polygon fill="#5850EC" points="275.3 158.5 183 183.2 158.2 275.7 211.3 290 289.5 211.8"/>
    <polygon fill="#5D9FE2" points=".7 233.1 .6 233.7"/>
    <polygon fill="#5D9FE2" points="318.6 319 318.6 319 135 368.2"/>
    <polygon fill="#5D9FE2" points="106.1 261.6 134 366 158.2 275.7"/>
    <polygon fill="#6875F5" points="106.1 261.6 134 366 158.2 275.7"/>
    <polygon fill="#5D9FE2" points=".7 233.1 .6 233.7"/>
    <polygon fill="#5D9FE2" points=".7 233.1 .6 233.7"/>
    <polygon fill="#5D9FE2" points="134 366 134.3 367.1 211.3 290 158.2 275.7"/>
    <polygon fill="#5D9FE2" points="134 366 134.3 367.1 211.3 290 158.2 275.7"/>
    <polygon fill="#5145CD" points="134 366 134.3 367.1 211.3 290 158.2 275.7"/>
    <polygon fill="#5D9FE2" points="233.3 .9 233.3 .9 233.5 .8"/>
    <polygon fill="#5D9FE2" points="261.3 106.1 275.3 158.5 366.7 134 367 134.3 367 134.3 367.9 135.3 233.5 .8 366.7 134"/>
    <polyline fill="#6875F5" points="366.7 134 261.3 106.1 275.3 158.5 366.7 134 367 134.3 367 134.3 367.9 135.3"/>
    <polygon fill="#5D9FE2" points="367 134.3 366.7 134 275.3 158.5 289.5 211.8"/>
    <polygon fill="#5D9FE2" points="367 134.3 366.7 134 275.3 158.5 289.5 211.8"/>
    <polygon fill="#5145CD" points="367 134.3 366.7 134 275.3 158.5 289.5 211.8"/>
    <polygon fill="#5D9FE2" points="49.6 50.7 77.9 156.3 156 78.1 49.9 50 49.8 50 36 101.3"/>
    <polygon fill="#F0F5FF" points="49.6 50.7 77.9 156.3 156 78.1 49.9 50 49.8 50 36 101.3"/>
    <polygon fill="#5D9FE2" points="233.3 .9 49.9 50 49.9 50"/>
    <polygon fill="#5D9FE2" points="233.3 .9 156 78.1 261.3 106.1 233.3 .9 49.9 50 49.9 50"/>
    <polygon fill="#B4C6FC" points="233.3 .9 156 78.1 261.3 106.1 233.3 .9 49.9 50 49.9 50"/>
    <polygon fill="#5D9FE2" points="233.5 .8 233.3 .9 233.3 .9"/>
    <polygon fill="#5D9FE2" points="233.5 .8 233.3 .9 233.3 .9"/>
    <polygon fill="#5D9FE2" points="261.3 106.1 366.7 134 233.5 .8 233.3 .9"/>
    <polygon fill="#5D9FE2" points="261.3 106.1 366.7 134 233.5 .8 233.3 .9"/>
    <polygon fill="#5850EC" points="261.3 106.1 366.7 134 233.5 .8 233.3 .9"/>
    <polygon fill="#5D9FE2" points="49.9 50 156 78.1 233.3 .9"/>
    <polygon fill="#5D9FE2" points="49.9 50 156 78.1 233.3 .9"/>
    <polygon fill="#CDDBFE" points="49.9 50 156 78.1 233.3 .9"/>
    <polygon fill="#5D9FE2" points="1 233.2 106.1 261.6 77.9 156.3"/>
    <polygon fill="#B4C6FC" points="1 233.2 106.1 261.6 77.9 156.3"/>
    <polygon fill="#5D9FE2" points=".7 233.1 .7 233.1 36 101.3"/>
    <polygon fill="#5D9FE2" points=".7 233.1 .7 233.1 36 101.3"/>
    <polygon fill="#5D9FE2" points="133.8 366.9 134 366 106.1 261.6 1 233.2 .6 233.5 .7 233.1 .7 233.1 .6 233.7 134.1 367.3 134.1 367.3"/>
    <polygon fill="#5D9FE2" points="133.8 366.9 134 366 106.1 261.6 1 233.2 .6 233.5 .7 233.1 .7 233.1 .6 233.7 134.1 367.3 134.1 367.3"/>
    <polygon fill="#5850EC" points="133.8 366.9 134 366 106.1 261.6 1 233.2 .6 233.5 .7 233.1 .7 233.1 .6 233.7 134.1 367.3 134.1 367.3"/>
    <polygon fill="#5D9FE2" points="133.8 366.9 134.1 367.3 134.3 367.1 134 366"/>
    <polygon fill="#5D9FE2" points="133.8 366.9 134.1 367.3 134.3 367.1 134 366"/>
    <polygon fill="#5D9FE2" points="133.8 366.9 134.1 367.3 134.3 367.1 134 366"/>
    <polygon fill="#5D9FE2" points="133.8 366.9 134.1 367.3 134.3 367.1 134 366"/>
    <polygon fill="#5D9FE2" points="49.6 50.7 36 101.3 .7 233.1 1 233.2 77.9 156.3"/>
    <polygon fill="#5D9FE2" points="49.6 50.7 36 101.3 .7 233.1 1 233.2 77.9 156.3"/>
    <polygon fill="#CDDBFE" points="49.6 50.7 36 101.3 .7 233.1 1 233.2 77.9 156.3"/>
    <polygon fill="#5D9FE2" points=".6 233.5 1 233.2 .7 233.1"/>
    <polygon fill="#5D9FE2" points=".6 233.5 1 233.2 .7 233.1"/>
    <polygon fill="#5D9FE2" points=".6 233.5 1 233.2 .7 233.1"/>
    <polygon fill="#5D9FE2" points=".6 233.5 1 233.2 .7 233.1"/>
    <polygon fill="#5D9FE2" points="211.3 290 318.1 318.9 289.5 211.8"/>
    <polygon fill="#5D9FE2" points="211.3 290 318.1 318.9 289.5 211.8"/>
    <polygon fill="#42389D" points="211.3 290 318.1 318.9 289.5 211.8"/>
    <polygon fill="#5D9FE2" points="318.6 319 318.6 319 318.7 319"/>
    <polygon fill="#5D9FE2" points="318.6 319 318.6 319 318.7 319"/>
    <polygon fill="#5D9FE2" points="318.6 319 318.6 319 318.7 319"/>
    <polygon fill="#5D9FE2" points="134.5 367.6 135 368.2"/>
    <polygon fill="#5D9FE2" points="134.5 367.6 135 368.2"/>
    <polygon fill="#5D9FE2" points="134.5 367.6 135 368.2"/>
    <polygon fill="#5D9FE2" points="318.1 319.1 318.1 318.9 211.3 290 134.3 367.1 134.5 367.6 135 368.2 318.6 319 318.6 319"/>
    <polygon fill="#5D9FE2" points="318.1 319.1 318.1 318.9 211.3 290 134.3 367.1 134.5 367.6 135 368.2 318.6 319 318.6 319"/>
    <polygon fill="#5D9FE2" points="318.1 319.1 318.1 318.9 211.3 290 134.3 367.1 134.5 367.6 135 368.2 318.6 319 318.6 319"/>
    <polygon fill="#362F78" points="184.1 29.1 184.1 28.9 77.3 0 .3 77.1 .5 77.6 1 78.2 184.6 29 184.6 29" opacity=".9" transform="translate(134 290)"/>
    <polygon fill="#5D9FE2" points="367 134.3 367.9 135.3"/>
    <polygon fill="#5D9FE2" points="367 134.3 367.9 135.3"/>
    <polygon fill="#5D9FE2" points="367 134.3 367.9 135.3"/>
    <polygon fill="#5D9FE2" points="289.5 211.8 318.1 318.9 318.6 319 318.7 319 367.9 135.3 367 134.3"/>
    <polygon fill="#5D9FE2" points="289.5 211.8 318.1 318.9 318.6 319 318.7 319 367.9 135.3 367 134.3"/>
    <polygon fill="#5D9FE2" points="289.5 211.8 318.1 318.9 318.6 319 318.7 319 367.9 135.3 367 134.3"/>
    <polygon fill="#362F78" points=".5 77.8 29.1 184.9 29.6 185 29.7 185 78.9 1.3 78 .3" opacity=".9" transform="translate(289 134)"/>
    <polygon fill="#5D9FE2" points="318.1 319.1 318.6 319 318.1 318.9"/>
    <polygon fill="#5D9FE2" points="318.1 319.1 318.6 319 318.1 318.9"/>
    <polygon fill="#5D9FE2" points="318.1 319.1 318.6 319 318.1 318.9"/>
    <polygon fill="#5D9FE2" points="318.1 319.1 318.6 319 318.1 318.9"/>
    <polygon fill="#5D9FE2" points="318.1 319.1 318.6 319 318.1 318.9"/>
    <polygon fill="#5D9FE2" points="134.1 367.3 134.1 367.3 134.5 367.6 134.5 367.6"/>
    <polygon fill="#5D9FE2" points="134.1 367.3 134.1 367.3 134.5 367.6 134.5 367.6"/>
    <polygon fill="#5D9FE2" points="134.1 367.3 134.1 367.3 134.5 367.6 134.5 367.6"/>
    <polygon fill="#5D9FE2" points="134.1 367.3 134.1 367.3 134.5 367.6 134.5 367.6"/>
    <polygon fill="#5D9FE2" points="134.5 367.6 134.3 367.1 134.1 367.3"/>
    <polygon fill="#5D9FE2" points="134.5 367.6 134.3 367.1 134.1 367.3"/>
    <polygon fill="#5D9FE2" points="134.5 367.6 134.3 367.1 134.1 367.3"/>
    <polygon fill="#5D9FE2" points="134.5 367.6 134.3 367.1 134.1 367.3"/>
    <polygon fill="#5D9FE2" points="134.5 367.6 134.3 367.1 134.1 367.3"/>
  </g>
</svg>
